<mxfile host="app.diagrams.net" modified="2024-06-24T02:37:52.497Z" agent="Mozilla/5.0 (Windows NT 10.0; Win64; x64) AppleWebKit/537.36 (KHTML, like Gecko) Chrome/126.0.0.0 Safari/537.36" etag="STLX2o1yvAwQP1iqcAFG" version="24.6.2" type="github">
  <diagram name="第 1 页" id="pIyq3l0sL7t9aEKKWsgh">
    <mxGraphModel dx="989" dy="541" grid="0" gridSize="10" guides="1" tooltips="1" connect="1" arrows="1" fold="1" page="1" pageScale="1" pageWidth="1169" pageHeight="827" math="0" shadow="0">
      <root>
        <mxCell id="0" />
        <mxCell id="1" parent="0" />
        <mxCell id="ssd41iKPIGtk5OjcM02k-7" value="" style="rounded=1;whiteSpace=wrap;html=1;dashed=1;" vertex="1" parent="1">
          <mxGeometry x="425" y="571" width="614" height="150" as="geometry" />
        </mxCell>
        <mxCell id="ssd41iKPIGtk5OjcM02k-28" value="" style="rounded=1;whiteSpace=wrap;html=1;dashed=1;" vertex="1" parent="1">
          <mxGeometry x="894" y="624" width="30" height="90" as="geometry" />
        </mxCell>
        <mxCell id="ssd41iKPIGtk5OjcM02k-5" value="" style="rounded=1;whiteSpace=wrap;html=1;dashed=1;" vertex="1" parent="1">
          <mxGeometry x="95.5" y="366" width="299" height="350" as="geometry" />
        </mxCell>
        <mxCell id="ssd41iKPIGtk5OjcM02k-1" value="RoBert" style="rounded=1;whiteSpace=wrap;html=1;fillColor=#ffe6cc;strokeColor=#d79b00;" vertex="1" parent="1">
          <mxGeometry x="113" y="574" width="265" height="43" as="geometry" />
        </mxCell>
        <mxCell id="ssd41iKPIGtk5OjcM02k-2" value="[CLS] is it humid in parc national de killarney" style="rounded=1;whiteSpace=wrap;html=1;fillColor=#dae8fc;strokeColor=#6c8ebf;" vertex="1" parent="1">
          <mxGeometry x="112" y="658" width="266" height="43" as="geometry" />
        </mxCell>
        <mxCell id="ssd41iKPIGtk5OjcM02k-3" value="7-way classification" style="rounded=1;whiteSpace=wrap;html=1;fillColor=#ffe6cc;strokeColor=#d79b00;" vertex="1" parent="1">
          <mxGeometry x="112" y="484" width="263" height="43" as="geometry" />
        </mxCell>
        <mxCell id="ssd41iKPIGtk5OjcM02k-6" value="" style="endArrow=classic;html=1;rounded=0;" edge="1" parent="1">
          <mxGeometry width="50" height="50" relative="1" as="geometry">
            <mxPoint x="385" y="677" as="sourcePoint" />
            <mxPoint x="425" y="677" as="targetPoint" />
          </mxGeometry>
        </mxCell>
        <mxCell id="ssd41iKPIGtk5OjcM02k-8" value="is it humid in parc national de killarney" style="rounded=1;whiteSpace=wrap;html=1;fillColor=#dae8fc;strokeColor=#6c8ebf;" vertex="1" parent="1">
          <mxGeometry x="440" y="595" width="292" height="22" as="geometry" />
        </mxCell>
        <mxCell id="ssd41iKPIGtk5OjcM02k-9" value="is it cloudy in georgia" style="rounded=1;whiteSpace=wrap;html=1;fillColor=#d5e8d4;strokeColor=#82b366;" vertex="1" parent="1">
          <mxGeometry x="440" y="627" width="292" height="23" as="geometry" />
        </mxCell>
        <mxCell id="ssd41iKPIGtk5OjcM02k-10" value="book a table in greece for 4" style="rounded=1;whiteSpace=wrap;html=1;fillColor=#f8cecc;strokeColor=#b85450;" vertex="1" parent="1">
          <mxGeometry x="440" y="660" width="292" height="22" as="geometry" />
        </mxCell>
        <mxCell id="ssd41iKPIGtk5OjcM02k-12" value="rate this novel three out of 6 stars" style="rounded=1;whiteSpace=wrap;html=1;fillColor=#f8cecc;strokeColor=#b85450;" vertex="1" parent="1">
          <mxGeometry x="440" y="692" width="292" height="22" as="geometry" />
        </mxCell>
        <mxCell id="ssd41iKPIGtk5OjcM02k-15" value="GetWeather" style="rounded=1;whiteSpace=wrap;html=1;fillColor=#dae8fc;strokeColor=#6c8ebf;" vertex="1" parent="1">
          <mxGeometry x="745" y="595" width="94" height="22" as="geometry" />
        </mxCell>
        <mxCell id="ssd41iKPIGtk5OjcM02k-16" value="GetWeather" style="rounded=1;whiteSpace=wrap;html=1;fillColor=#d5e8d4;strokeColor=#82b366;" vertex="1" parent="1">
          <mxGeometry x="745" y="627" width="94" height="22" as="geometry" />
        </mxCell>
        <mxCell id="ssd41iKPIGtk5OjcM02k-17" value="BookRestaurant" style="rounded=1;whiteSpace=wrap;html=1;fillColor=#f8cecc;strokeColor=#b85450;" vertex="1" parent="1">
          <mxGeometry x="745" y="662" width="94" height="22" as="geometry" />
        </mxCell>
        <mxCell id="ssd41iKPIGtk5OjcM02k-18" value="RateBook" style="rounded=1;whiteSpace=wrap;html=1;fillColor=#f8cecc;strokeColor=#b85450;" vertex="1" parent="1">
          <mxGeometry x="745" y="692" width="94" height="22" as="geometry" />
        </mxCell>
        <mxCell id="ssd41iKPIGtk5OjcM02k-19" value="" style="endArrow=classic;html=1;rounded=0;" edge="1" parent="1">
          <mxGeometry width="50" height="50" relative="1" as="geometry">
            <mxPoint x="848" y="605.5" as="sourcePoint" />
            <mxPoint x="888" y="605.5" as="targetPoint" />
          </mxGeometry>
        </mxCell>
        <mxCell id="ssd41iKPIGtk5OjcM02k-20" value="" style="endArrow=classic;html=1;rounded=0;" edge="1" parent="1">
          <mxGeometry width="50" height="50" relative="1" as="geometry">
            <mxPoint x="848" y="636" as="sourcePoint" />
            <mxPoint x="888" y="636" as="targetPoint" />
          </mxGeometry>
        </mxCell>
        <mxCell id="ssd41iKPIGtk5OjcM02k-22" value="" style="endArrow=classic;html=1;rounded=0;" edge="1" parent="1">
          <mxGeometry width="50" height="50" relative="1" as="geometry">
            <mxPoint x="849" y="672.5" as="sourcePoint" />
            <mxPoint x="889" y="672.5" as="targetPoint" />
          </mxGeometry>
        </mxCell>
        <mxCell id="ssd41iKPIGtk5OjcM02k-23" value="" style="endArrow=classic;html=1;rounded=0;" edge="1" parent="1">
          <mxGeometry width="50" height="50" relative="1" as="geometry">
            <mxPoint x="849" y="701" as="sourcePoint" />
            <mxPoint x="889" y="701" as="targetPoint" />
          </mxGeometry>
        </mxCell>
        <mxCell id="ssd41iKPIGtk5OjcM02k-24" value="" style="ellipse;whiteSpace=wrap;html=1;aspect=fixed;fillColor=#f8cecc;strokeColor=#b85450;" vertex="1" parent="1">
          <mxGeometry x="898" y="690" width="22" height="22" as="geometry" />
        </mxCell>
        <mxCell id="ssd41iKPIGtk5OjcM02k-25" value="" style="ellipse;whiteSpace=wrap;html=1;aspect=fixed;fillColor=#f8cecc;strokeColor=#b85450;" vertex="1" parent="1">
          <mxGeometry x="898" y="662" width="22" height="22" as="geometry" />
        </mxCell>
        <mxCell id="ssd41iKPIGtk5OjcM02k-26" value="" style="ellipse;whiteSpace=wrap;html=1;aspect=fixed;fillColor=#d5e8d4;strokeColor=#82b366;" vertex="1" parent="1">
          <mxGeometry x="898" y="628" width="22" height="22" as="geometry" />
        </mxCell>
        <mxCell id="ssd41iKPIGtk5OjcM02k-27" value="" style="ellipse;whiteSpace=wrap;html=1;aspect=fixed;fillColor=#dae8fc;strokeColor=#6c8ebf;" vertex="1" parent="1">
          <mxGeometry x="898" y="597" width="22" height="22" as="geometry" />
        </mxCell>
        <mxCell id="ssd41iKPIGtk5OjcM02k-31" value="" style="endArrow=none;html=1;rounded=0;endFill=0;" edge="1" parent="1">
          <mxGeometry width="50" height="50" relative="1" as="geometry">
            <mxPoint x="929" y="670.5" as="sourcePoint" />
            <mxPoint x="962" y="670.5" as="targetPoint" />
          </mxGeometry>
        </mxCell>
        <mxCell id="ssd41iKPIGtk5OjcM02k-32" value="" style="endArrow=none;html=1;rounded=0;endFill=0;" edge="1" parent="1">
          <mxGeometry width="50" height="50" relative="1" as="geometry">
            <mxPoint x="930" y="605.5" as="sourcePoint" />
            <mxPoint x="962" y="605.5" as="targetPoint" />
          </mxGeometry>
        </mxCell>
        <mxCell id="ssd41iKPIGtk5OjcM02k-33" value="" style="ellipse;whiteSpace=wrap;html=1;aspect=fixed;" vertex="1" parent="1">
          <mxGeometry x="951" y="628" width="22" height="22" as="geometry" />
        </mxCell>
        <mxCell id="ssd41iKPIGtk5OjcM02k-34" value="" style="endArrow=classic;html=1;rounded=0;" edge="1" parent="1">
          <mxGeometry width="50" height="50" relative="1" as="geometry">
            <mxPoint x="961.86" y="606" as="sourcePoint" />
            <mxPoint x="962" y="628" as="targetPoint" />
          </mxGeometry>
        </mxCell>
        <mxCell id="ssd41iKPIGtk5OjcM02k-35" value="" style="ellipse;whiteSpace=wrap;html=1;aspect=fixed;fillColor=#1A1A1A;" vertex="1" parent="1">
          <mxGeometry x="960.5" y="637.5" width="3" height="3" as="geometry" />
        </mxCell>
        <mxCell id="ssd41iKPIGtk5OjcM02k-38" value="" style="endArrow=classic;html=1;rounded=0;" edge="1" parent="1">
          <mxGeometry width="50" height="50" relative="1" as="geometry">
            <mxPoint x="961.86" y="670" as="sourcePoint" />
            <mxPoint x="962" y="650" as="targetPoint" />
          </mxGeometry>
        </mxCell>
        <mxCell id="ssd41iKPIGtk5OjcM02k-40" value="Contrastive Loss" style="text;html=1;align=center;verticalAlign=middle;whiteSpace=wrap;rounded=0;" vertex="1" parent="1">
          <mxGeometry x="976" y="623" width="60" height="30" as="geometry" />
        </mxCell>
        <mxCell id="ssd41iKPIGtk5OjcM02k-41" value="Bath_size设置为4" style="text;html=1;align=center;verticalAlign=middle;whiteSpace=wrap;rounded=0;" vertex="1" parent="1">
          <mxGeometry x="438" y="567" width="100" height="30" as="geometry" />
        </mxCell>
        <mxCell id="ssd41iKPIGtk5OjcM02k-43" value="" style="endArrow=classic;html=1;rounded=0;entryX=0.5;entryY=1;entryDx=0;entryDy=0;" edge="1" parent="1" target="ssd41iKPIGtk5OjcM02k-1">
          <mxGeometry width="50" height="50" relative="1" as="geometry">
            <mxPoint x="246" y="652" as="sourcePoint" />
            <mxPoint x="286" y="603" as="targetPoint" />
          </mxGeometry>
        </mxCell>
        <mxCell id="ssd41iKPIGtk5OjcM02k-44" value="" style="endArrow=classic;html=1;rounded=0;entryX=0.5;entryY=1;entryDx=0;entryDy=0;exitX=0.5;exitY=0;exitDx=0;exitDy=0;" edge="1" parent="1">
          <mxGeometry width="50" height="50" relative="1" as="geometry">
            <mxPoint x="244.5" y="571" as="sourcePoint" />
            <mxPoint x="244" y="529" as="targetPoint" />
          </mxGeometry>
        </mxCell>
        <mxCell id="ssd41iKPIGtk5OjcM02k-45" value="" style="endArrow=classic;html=1;rounded=0;" edge="1" parent="1">
          <mxGeometry width="50" height="50" relative="1" as="geometry">
            <mxPoint x="385" y="507" as="sourcePoint" />
            <mxPoint x="425" y="507" as="targetPoint" />
          </mxGeometry>
        </mxCell>
        <mxCell id="ssd41iKPIGtk5OjcM02k-46" value="" style="rounded=1;whiteSpace=wrap;html=1;dashed=1;" vertex="1" parent="1">
          <mxGeometry x="428" y="368" width="446" height="191" as="geometry" />
        </mxCell>
        <mxCell id="ssd41iKPIGtk5OjcM02k-50" value="" style="edgeStyle=orthogonalEdgeStyle;rounded=0;orthogonalLoop=1;jettySize=auto;html=1;endArrow=classic;endFill=1;" edge="1" parent="1" source="ssd41iKPIGtk5OjcM02k-47" target="ssd41iKPIGtk5OjcM02k-48">
          <mxGeometry relative="1" as="geometry" />
        </mxCell>
        <mxCell id="ssd41iKPIGtk5OjcM02k-47" value="" style="ellipse;whiteSpace=wrap;html=1;aspect=fixed;fillColor=#dae8fc;strokeColor=#6c8ebf;" vertex="1" parent="1">
          <mxGeometry x="499" y="527" width="22" height="22" as="geometry" />
        </mxCell>
        <mxCell id="ssd41iKPIGtk5OjcM02k-54" value="" style="edgeStyle=orthogonalEdgeStyle;rounded=0;orthogonalLoop=1;jettySize=auto;html=1;" edge="1" parent="1" source="ssd41iKPIGtk5OjcM02k-48" target="ssd41iKPIGtk5OjcM02k-53">
          <mxGeometry relative="1" as="geometry" />
        </mxCell>
        <mxCell id="ssd41iKPIGtk5OjcM02k-48" value="7-way classification" style="rounded=1;whiteSpace=wrap;html=1;fillColor=#ffe6cc;strokeColor=#d79b00;" vertex="1" parent="1">
          <mxGeometry x="441.5" y="469" width="137" height="43" as="geometry" />
        </mxCell>
        <mxCell id="ssd41iKPIGtk5OjcM02k-56" value="" style="edgeStyle=orthogonalEdgeStyle;rounded=0;orthogonalLoop=1;jettySize=auto;html=1;" edge="1" parent="1" source="ssd41iKPIGtk5OjcM02k-53" target="ssd41iKPIGtk5OjcM02k-55">
          <mxGeometry relative="1" as="geometry" />
        </mxCell>
        <mxCell id="ssd41iKPIGtk5OjcM02k-53" value="Loss&lt;font style=&quot;font-size: 7px;&quot;&gt;intent&lt;/font&gt;" style="text;html=1;align=center;verticalAlign=middle;whiteSpace=wrap;rounded=0;" vertex="1" parent="1">
          <mxGeometry x="480" y="418" width="60" height="30" as="geometry" />
        </mxCell>
        <mxCell id="ssd41iKPIGtk5OjcM02k-55" value="对抗攻击" style="text;html=1;align=center;verticalAlign=middle;whiteSpace=wrap;rounded=0;" vertex="1" parent="1">
          <mxGeometry x="617" y="475.5" width="60" height="30" as="geometry" />
        </mxCell>
        <mxCell id="ssd41iKPIGtk5OjcM02k-59" value="" style="endArrow=classic;html=1;rounded=0;entryX=0.5;entryY=1;entryDx=0;entryDy=0;exitX=0.5;exitY=0;exitDx=0;exitDy=0;" edge="1" parent="1">
          <mxGeometry width="50" height="50" relative="1" as="geometry">
            <mxPoint x="647.1600000000001" y="500" as="sourcePoint" />
            <mxPoint x="646.6600000000001" y="524" as="targetPoint" />
          </mxGeometry>
        </mxCell>
        <mxCell id="ssd41iKPIGtk5OjcM02k-62" value="" style="ellipse;whiteSpace=wrap;html=1;aspect=fixed;fillColor=#FF6666;strokeColor=#6F0000;fontColor=#ffffff;" vertex="1" parent="1">
          <mxGeometry x="636" y="525" width="22" height="22" as="geometry" />
        </mxCell>
        <mxCell id="ssd41iKPIGtk5OjcM02k-63" value="+" style="text;html=1;align=center;verticalAlign=middle;whiteSpace=wrap;rounded=0;" vertex="1" parent="1">
          <mxGeometry x="575" y="530.5" width="12" height="15" as="geometry" />
        </mxCell>
        <mxCell id="ssd41iKPIGtk5OjcM02k-64" value="=" style="text;html=1;align=center;verticalAlign=middle;whiteSpace=wrap;rounded=0;" vertex="1" parent="1">
          <mxGeometry x="733" y="530.5" width="12" height="15" as="geometry" />
        </mxCell>
        <mxCell id="ssd41iKPIGtk5OjcM02k-65" value="" style="ellipse;whiteSpace=wrap;html=1;aspect=fixed;fillColor=#6a00ff;strokeColor=#3700CC;fontColor=#ffffff;" vertex="1" parent="1">
          <mxGeometry x="788" y="525" width="22" height="22" as="geometry" />
        </mxCell>
        <mxCell id="ssd41iKPIGtk5OjcM02k-66" value="7-way classification" style="rounded=1;whiteSpace=wrap;html=1;fillColor=#ffe6cc;strokeColor=#d79b00;" vertex="1" parent="1">
          <mxGeometry x="730.5" y="466" width="137" height="43" as="geometry" />
        </mxCell>
        <mxCell id="ssd41iKPIGtk5OjcM02k-67" value="" style="edgeStyle=orthogonalEdgeStyle;rounded=0;orthogonalLoop=1;jettySize=auto;html=1;endArrow=classic;endFill=1;" edge="1" parent="1">
          <mxGeometry relative="1" as="geometry">
            <mxPoint x="798.6600000000001" y="525" as="sourcePoint" />
            <mxPoint x="798.6600000000001" y="510" as="targetPoint" />
          </mxGeometry>
        </mxCell>
        <mxCell id="ssd41iKPIGtk5OjcM02k-69" value="" style="edgeStyle=orthogonalEdgeStyle;rounded=0;orthogonalLoop=1;jettySize=auto;html=1;" edge="1" parent="1">
          <mxGeometry relative="1" as="geometry">
            <mxPoint x="798.6600000000001" y="466" as="sourcePoint" />
            <mxPoint x="798.6600000000001" y="445" as="targetPoint" />
          </mxGeometry>
        </mxCell>
        <mxCell id="ssd41iKPIGtk5OjcM02k-70" value="Loss&lt;font style=&quot;font-size: 7px;&quot;&gt;intent&lt;/font&gt;&lt;font style=&quot;font-size: 13px;&quot;&gt;&#39;&lt;/font&gt;" style="text;html=1;align=center;verticalAlign=middle;whiteSpace=wrap;rounded=0;" vertex="1" parent="1">
          <mxGeometry x="771" y="422" width="60" height="30" as="geometry" />
        </mxCell>
        <mxCell id="ssd41iKPIGtk5OjcM02k-72" value="" style="endArrow=classic;html=1;rounded=0;" edge="1" parent="1">
          <mxGeometry width="50" height="50" relative="1" as="geometry">
            <mxPoint x="506" y="422" as="sourcePoint" />
            <mxPoint x="642" y="407" as="targetPoint" />
          </mxGeometry>
        </mxCell>
        <mxCell id="ssd41iKPIGtk5OjcM02k-73" value="" style="endArrow=classic;html=1;rounded=0;" edge="1" parent="1">
          <mxGeometry width="50" height="50" relative="1" as="geometry">
            <mxPoint x="800" y="422" as="sourcePoint" />
            <mxPoint x="664" y="407" as="targetPoint" />
          </mxGeometry>
        </mxCell>
        <mxCell id="ssd41iKPIGtk5OjcM02k-74" value="Loss&lt;span style=&quot;font-size: 7px;&quot;&gt;adv&lt;/span&gt;" style="text;html=1;align=center;verticalAlign=middle;whiteSpace=wrap;rounded=0;" vertex="1" parent="1">
          <mxGeometry x="624" y="382" width="60" height="31" as="geometry" />
        </mxCell>
        <mxCell id="ssd41iKPIGtk5OjcM02k-75" value="" style="endArrow=classic;html=1;rounded=0;exitX=0.5;exitY=0;exitDx=0;exitDy=0;" edge="1" parent="1">
          <mxGeometry width="50" height="50" relative="1" as="geometry">
            <mxPoint x="245.16" y="480" as="sourcePoint" />
            <mxPoint x="245" y="457" as="targetPoint" />
          </mxGeometry>
        </mxCell>
        <mxCell id="ssd41iKPIGtk5OjcM02k-77" value="0.02" style="rounded=1;whiteSpace=wrap;html=1;" vertex="1" parent="1">
          <mxGeometry x="109" y="428" width="36" height="26" as="geometry" />
        </mxCell>
        <mxCell id="ssd41iKPIGtk5OjcM02k-78" value="0.1" style="rounded=1;whiteSpace=wrap;html=1;" vertex="1" parent="1">
          <mxGeometry x="149" y="428" width="36" height="26" as="geometry" />
        </mxCell>
        <mxCell id="ssd41iKPIGtk5OjcM02k-79" value="0.1" style="rounded=1;whiteSpace=wrap;html=1;" vertex="1" parent="1">
          <mxGeometry x="190" y="428" width="36" height="26" as="geometry" />
        </mxCell>
        <mxCell id="ssd41iKPIGtk5OjcM02k-80" value="0.6" style="rounded=1;whiteSpace=wrap;html=1;fillColor=#d5e8d4;strokeColor=#82b366;" vertex="1" parent="1">
          <mxGeometry x="231" y="428" width="36" height="26" as="geometry" />
        </mxCell>
        <mxCell id="ssd41iKPIGtk5OjcM02k-81" value="0.05" style="rounded=1;whiteSpace=wrap;html=1;" vertex="1" parent="1">
          <mxGeometry x="272" y="428" width="36" height="26" as="geometry" />
        </mxCell>
        <mxCell id="ssd41iKPIGtk5OjcM02k-82" value="0.05" style="rounded=1;whiteSpace=wrap;html=1;" vertex="1" parent="1">
          <mxGeometry x="313" y="428" width="36" height="26" as="geometry" />
        </mxCell>
        <mxCell id="ssd41iKPIGtk5OjcM02k-83" value="0.08" style="rounded=1;whiteSpace=wrap;html=1;" vertex="1" parent="1">
          <mxGeometry x="355" y="428" width="36" height="26" as="geometry" />
        </mxCell>
        <mxCell id="ssd41iKPIGtk5OjcM02k-84" value="GetWeather" style="text;html=1;align=center;verticalAlign=middle;whiteSpace=wrap;rounded=0;" vertex="1" parent="1">
          <mxGeometry x="219" y="398" width="60" height="30" as="geometry" />
        </mxCell>
      </root>
    </mxGraphModel>
  </diagram>
</mxfile>
